<?xml version="1.0" standalone="no"?>
<!DOCTYPE svg PUBLIC "-//W3C//DTD SVG 20010904//EN"
 "http://www.w3.org/TR/2001/REC-SVG-20010904/DTD/svg10.dtd">
<svg version="1.0" xmlns="http://www.w3.org/2000/svg"
 width="1600.000000pt" height="1200.000000pt" viewBox="0 0 1600.000000 1200.000000"
 preserveAspectRatio="xMidYMid meet">

<g transform="translate(0.000000,1200.000000) scale(0.100000,-0.100000)"
fill="#000000" stroke="none">
<path d="M8751 9510 c-46 -188 -81 -343 -78 -346 3 -3 96 -32 208 -65 112 -33
359 -105 547 -161 225 -66 346 -98 350 -91 11 18 197 772 192 777 -6 5 -1096
226 -1119 226 -14 0 -32 -62 -100 -340z m499 67 c8 -7 49 -50 90 -97 41 -46
83 -93 93 -104 24 -27 21 -41 -9 -55 -31 -14 -36 -11 -94 52 -25 28 -62 68
-82 89 -37 39 -44 61 -32 106 7 25 13 27 34 9z"/>
<path d="M7852 9603 c-12 -2 -20 -9 -17 -14 3 -5 -1 -6 -9 -3 -20 8 -92 -34
-133 -78 -52 -55 -78 -123 -78 -203 1 -83 7 -113 31 -152 39 -62 121 -122 146
-107 7 4 8 3 4 -4 -4 -7 -3 -12 3 -12 5 0 15 8 20 18 9 15 10 15 11 -4 0 -19
6 -22 48 -21 26 0 51 2 57 5 5 3 21 7 34 8 14 2 27 8 29 14 2 5 10 10 18 10 8
0 23 9 34 20 11 11 20 18 20 15 0 -3 8 3 18 13 20 18 18 40 -2 23 -8 -7 -17
-6 -26 1 -12 8 -12 9 2 4 10 -3 20 -1 23 4 3 5 11 7 18 4 18 -6 51 31 41 47
-5 8 -3 10 6 4 10 -6 12 -3 8 13 -4 12 -2 20 3 17 25 -16 33 174 9 222 -38 74
-110 138 -153 135 -9 0 -15 3 -12 7 10 17 -91 26 -153 14z m182 -49 c3 -8 2
-12 -4 -9 -6 3 -10 10 -10 16 0 14 7 11 14 -7z m51 -24 c-3 -5 -13 -6 -21 -3
-12 4 -13 8 -3 14 15 9 32 2 24 -11z m-170 -20 c3 -6 -1 -7 -9 -4 -18 7 -21
14 -7 14 6 0 13 -4 16 -10z m235 -46 c0 -16 -22 1 -36 29 l-17 32 27 -28 c14
-15 26 -30 26 -33z m-297 39 c-7 -2 -19 -2 -25 0 -7 3 -2 5 12 5 14 0 19 -2
13 -5z m-148 -13 c-3 -5 -12 -10 -18 -10 -7 0 -6 4 3 10 19 12 23 12 15 0z
m185 -10 c0 -5 -2 -10 -4 -10 -3 0 -8 5 -11 10 -3 6 -1 10 4 10 6 0 11 -4 11
-10z m3 -40 l34 -40 47 16 c55 19 90 13 111 -20 19 -28 21 -89 6 -129 -16 -40
-67 -85 -136 -118 -98 -47 -117 -48 -159 -2 -44 47 -96 146 -96 184 0 41 18
80 53 117 24 25 39 32 68 32 31 0 43 -7 72 -40z m22 29 c-4 -5 1 -19 11 -30 9
-10 13 -19 8 -19 -13 0 -36 39 -29 50 4 6 8 10 11 10 3 0 2 -5 -1 -11z m170
-39 c3 -6 -1 -7 -9 -4 -18 7 -21 14 -7 14 6 0 13 -4 16 -10z m46 -27 c13 -16
12 -17 -3 -4 -10 7 -18 15 -18 17 0 8 8 3 21 -13z m-466 -24 c11 -16 1 -19
-13 -3 -7 8 -8 14 -3 14 5 0 13 -5 16 -11z m-8 -91 c-3 -7 -5 -2 -5 12 0 14 2
19 5 13 2 -7 2 -19 0 -25z m496 2 c3 -11 1 -18 -4 -14 -5 3 -9 0 -9 -7 0 -7
-2 -10 -5 -8 -4 5 5 49 10 49 1 0 5 -9 8 -20z m-48 -57 c-9 -15 -13 -19 -10
-8 4 11 10 29 13 40 3 11 7 14 9 8 3 -7 -3 -24 -12 -40z m-447 -58 c-3 -3 -9
2 -12 12 -6 14 -5 15 5 6 7 -7 10 -15 7 -18z m466 17 c3 -5 -1 -9 -9 -9 -8 0
-12 4 -9 9 3 4 7 8 9 8 2 0 6 -4 9 -8z m-34 -12 c0 -5 -5 -10 -11 -10 -5 0 -7
5 -4 10 3 6 8 10 11 10 2 0 4 -4 4 -10z m-315 -30 c3 -5 1 -10 -4 -10 -6 0
-11 5 -11 10 0 6 2 10 4 10 3 0 8 -4 11 -10z m218 -27 c-7 -2 -19 -2 -25 0 -7
3 -2 5 12 5 14 0 19 -2 13 -5z m-238 -13 c-3 -5 -12 -10 -18 -10 -7 0 -6 4 3
10 19 12 23 12 15 0z m61 -15 c9 -8 11 -15 6 -15 -5 0 -15 7 -22 15 -7 8 -9
15 -6 15 4 0 14 -7 22 -15z m-16 -25 c0 -5 -7 -7 -15 -4 -8 4 -15 8 -15 10 0
2 7 4 15 4 8 0 15 -4 15 -10z m77 -6 c-3 -3 -12 -4 -19 -1 -8 3 -5 6 6 6 11 1
17 -2 13 -5z m8 -24 c3 -5 2 -10 -4 -10 -5 0 -13 5 -16 10 -3 6 -2 10 4 10 5
0 13 -4 16 -10z"/>
<path d="M8094 8710 c-129 -27 -249 -135 -316 -281 -23 -51 -32 -122 -19 -148
11 -19 20 -21 94 -21 84 0 225 28 279 56 15 8 37 14 50 13 23 -1 23 -1 -2 -9
-18 -6 -6 -8 44 -9 70 -1 89 8 22 11 -48 2 -46 15 4 28 32 9 50 8 88 -5 103
-35 295 -150 290 -174 -1 -3 2 -49 6 -102 7 -91 10 -101 49 -160 l42 -64 6 65
c4 36 7 95 8 132 1 62 3 68 30 87 36 26 83 27 103 4 48 -54 40 -186 -15 -269
-49 -73 -78 -126 -72 -132 3 -3 38 28 78 69 133 135 204 317 195 502 -5 114
-37 187 -113 264 -106 105 -234 148 -430 144 -201 -5 -225 -4 -305 2 -41 3
-93 2 -116 -3z"/>
<path d="M5720 8599 c-30 -38 -54 -75 -52 -80 1 -6 -2 -8 -6 -5 -14 8 -194
-213 -186 -227 4 -7 3 -9 -1 -4 -5 4 -17 0 -27 -10 -20 -18 -25 -38 -5 -26 18
11 38 13 31 2 -3 -5 -10 -7 -15 -4 -5 4 -9 1 -9 -5 0 -6 -8 -9 -17 -6 -25 7
-83 -72 -62 -85 8 -4 23 -7 34 -5 11 2 14 1 7 -1 -18 -6 -4 -23 19 -23 11 0
17 -4 14 -10 -3 -5 0 -10 8 -10 8 0 22 -9 32 -20 20 -22 41 -27 29 -7 -5 8 -2
8 9 -2 20 -16 23 -26 5 -15 -9 5 -8 2 1 -10 8 -9 20 -15 28 -12 8 3 12 2 9 -3
-3 -4 6 -19 19 -31 l25 -23 1 44 2 44 6 -50 c4 -35 14 -59 33 -80 26 -28 28
-28 47 -11 11 10 18 23 15 27 -3 5 2 6 10 3 9 -3 16 -2 16 4 0 5 -7 13 -16 16
-9 4 -14 9 -11 13 4 3 13 0 21 -6 12 -10 25 -5 70 29 32 25 53 47 49 54 -3 6
-3 8 1 4 7 -6 40 17 144 98 2 1 4 9 6 17 2 19 25 47 38 47 6 0 0 -9 -13 -20
-40 -33 -11 -22 31 12 32 25 37 34 28 45 -9 11 -13 12 -20 1 -6 -8 -7 -4 -3
11 6 20 4 23 -9 18 -11 -4 -15 -3 -11 4 10 16 -22 58 -42 55 -10 -2 -12 -1 -5
1 17 6 15 23 -3 23 -8 0 -15 7 -15 14 0 12 -13 10 -67 -10 -38 -13 -78 -24
-90 -24 -13 0 -23 -4 -23 -9 0 -5 -17 -9 -37 -9 -36 1 -36 1 -12 10 23 8 27
16 33 70 10 98 7 203 -6 216 -9 9 -9 12 0 12 7 0 12 5 12 10 0 21 -17 6 -70
-61z m13 -13 c-10 -13 -20 -22 -22 -20 -4 4 29 44 36 44 2 0 -4 -11 -14 -24z
m-85 -115 c-20 -29 -109 -123 -113 -119 -2 2 23 32 56 68 32 36 59 69 59 74 0
5 3 7 6 3 3 -3 0 -15 -8 -26z m319 -97 c-3 -3 -12 -4 -19 -1 -8 3 -5 6 6 6 11
1 17 -2 13 -5z m-50 -10 c-3 -3 -12 -4 -19 -1 -8 3 -5 6 6 6 11 1 17 -2 13 -5z
m-404 -48 c-10 -13 -20 -22 -22 -20 -4 4 29 44 36 44 2 0 -4 -11 -14 -24z
m417 14 c10 -6 2 -7 -25 -3 -49 7 -58 13 -19 13 16 0 36 -5 44 -10z m-143 -67
c-2 -16 -4 -5 -4 22 0 28 2 40 4 28 2 -13 2 -35 0 -50z m226 60 c-7 -2 -21 -2
-30 0 -10 3 -4 5 12 5 17 0 24 -2 18 -5z m-408 -33 c-3 -5 -14 -10 -23 -9 -14
0 -13 2 3 9 27 11 27 11 20 0z m440 -26 c9 -15 12 -23 6 -20 -11 7 -35 46 -28
46 3 0 12 -12 22 -26z m-275 -82 c0 -22 -60 -58 -81 -49 -10 4 -9 6 4 6 25 1
67 31 67 47 0 8 2 14 5 14 3 0 5 -8 5 -18z m-282 -39 c-10 -2 -26 -2 -35 0
-10 3 -2 5 17 5 19 0 27 -2 18 -5z m121 -25 c-2 -32 -2 -32 -6 -5 -4 27 -7 29
-44 25 -21 -2 -39 0 -39 4 0 5 20 8 45 8 44 0 45 0 44 -32z m281 28 c0 -2 -7
-7 -16 -10 -8 -3 -12 -2 -9 4 6 10 25 14 25 6z m-180 -36 c0 -5 -2 -10 -4 -10
-3 0 -8 5 -11 10 -3 6 -1 10 4 10 6 0 11 -4 11 -10z m184 -4 c-21 -15 -30 -14
-19 3 3 6 14 11 23 11 13 0 13 -2 -4 -14z m-304 -40 c-14 -8 -29 -11 -35 -8
-5 3 1 9 15 13 40 11 47 9 20 -5z m57 -53 c-2 -16 -4 -5 -4 22 0 28 2 40 4 28
2 -13 2 -35 0 -50z m183 63 c0 -2 -7 -7 -16 -10 -8 -3 -12 -2 -9 4 6 10 25 14
25 6z m-160 -120 c-7 -7 -14 -6 -21 1 -9 9 -7 12 9 10 14 -1 18 -5 12 -11z"/>
<path d="M9915 8545 l-40 -14 37 6 c52 7 132 -14 164 -43 14 -14 45 -32 68
-41 22 -9 64 -33 92 -54 41 -30 54 -35 65 -26 11 10 11 9 1 -5 -11 -13 -8 -24
17 -62 85 -135 50 -321 -80 -424 -30 -23 -59 -47 -65 -52 -7 -5 -15 -6 -20 -2
-4 4 -4 2 -1 -4 12 -21 -168 -184 -258 -233 -22 -12 -33 -20 -25 -17 72 23 90
30 90 37 0 4 13 10 29 14 16 3 59 24 95 46 36 21 70 39 75 39 6 0 11 3 11 8 0
4 16 16 35 26 19 11 35 22 35 26 0 4 9 10 21 13 12 3 18 10 14 16 -3 7 0 8 9
5 19 -7 21 7 4 24 -7 7 -8 12 -2 12 5 0 15 -5 20 -10 8 -8 15 -6 24 5 10 12
10 19 1 28 -9 9 -14 9 -21 -3 -5 -8 -10 -11 -10 -7 0 5 9 20 19 33 16 20 20
21 25 8 4 -9 2 -13 -5 -8 -7 4 -10 1 -7 -6 9 -27 29 -21 43 12 8 18 14 29 15
23 0 -5 9 7 20 28 11 21 18 42 15 47 -3 4 -1 10 5 12 13 4 24 77 23 160 0 52
-7 82 -28 130 -32 71 -73 130 -85 123 -5 -3 -12 0 -16 6 -4 8 -3 9 4 5 7 -4
12 -4 11 1 -1 16 -82 74 -96 69 -9 -4 -11 -1 -7 6 5 7 -2 9 -22 5 -16 -3 -23
-4 -16 -1 18 8 15 27 -4 20 -9 -4 -13 -2 -8 5 4 7 1 10 -7 7 -8 -3 -28 1 -46
9 -41 17 -166 16 -218 -2z m250 -35 c-3 -5 -16 -10 -28 -9 -20 1 -20 2 3 9 14
4 26 8 28 9 2 1 0 -3 -3 -9z m65 -54 c0 -2 -7 -7 -16 -10 -8 -3 -12 -2 -9 4 6
10 25 14 25 6z m17 -33 c-3 -3 -11 -2 -17 2 -9 6 -9 10 1 16 14 8 27 -7 16
-18z m40 -9 c-3 -3 -12 -4 -19 -1 -8 3 -5 6 6 6 11 1 17 -2 13 -5z m67 -50 c3
-8 2 -12 -4 -9 -6 3 -10 10 -10 16 0 14 7 11 14 -7z m40 -20 c3 -8 2 -12 -4
-9 -6 3 -10 10 -10 16 0 14 7 11 14 -7z m-35 -58 c1 -6 -5 -1 -13 9 -8 11 -12
24 -8 29 5 9 20 -17 21 -38z m90 -141 c0 -5 -4 -3 -9 5 -5 8 -9 22 -9 30 0 16
17 -16 18 -35z m-39 -175 c0 -5 -2 -10 -4 -10 -3 0 -8 5 -11 10 -3 6 -1 10 4
10 6 0 11 -4 11 -10z m-95 -59 c3 -5 2 -12 -3 -15 -5 -3 -9 1 -9 9 0 17 3 19
12 6z m-25 -31 c0 -5 -2 -10 -4 -10 -3 0 -8 5 -11 10 -3 6 -1 10 4 10 6 0 11
-4 11 -10z m-85 -59 c-3 -6 -11 -11 -16 -11 -5 0 -4 6 3 14 14 16 24 13 13 -3z
m-58 -93 c-3 -8 -6 -5 -6 6 -1 11 2 17 5 13 3 -3 4 -12 1 -19z"/>
<path d="M9825 8510 c-3 -6 1 -7 9 -4 18 7 21 14 7 14 -6 0 -13 -4 -16 -10z"/>
<path d="M8260 8340 c-23 -7 -21 -8 13 -10 47 -3 48 -3 72 -17 16 -9 -4 -11
-95 -11 -71 0 -127 -5 -145 -13 -16 -6 -39 -12 -50 -11 -16 1 -17 0 -2 -4 9
-3 17 -10 17 -15 0 -12 -24 -11 -37 2 -7 7 -23 7 -54 -1 -24 -7 -54 -12 -66
-12 -29 -1 -37 -57 -27 -202 l8 -111 13 60 c7 33 15 65 16 70 6 23 62 111 81
127 66 55 178 81 296 68 82 -9 214 -60 274 -106 33 -25 46 -31 46 -19 0 8 -7
15 -16 15 -12 0 -14 3 -6 13 7 8 7 17 -1 28 -15 20 -57 35 -57 20 0 -6 -5 -11
-12 -11 -9 0 -9 3 0 12 16 16 15 25 -3 32 -8 3 -14 0 -12 -6 1 -6 -4 -13 -12
-16 -8 -2 -11 0 -8 5 4 6 0 18 -7 28 -10 15 -16 16 -32 6 -17 -11 -17 -11 6
-6 19 4 21 3 10 -4 -11 -7 -32 -4 -70 9 l-55 19 53 -4 c30 -2 50 0 47 6 -4 5
-15 9 -26 9 -11 0 -18 4 -15 9 4 5 -3 7 -14 4 -11 -3 -20 0 -20 6 0 11 -22 22
-65 34 -11 2 -31 1 -45 -3z m-25 -54 c6 -2 -11 -5 -36 -7 -27 -2 -46 0 -46 6
0 9 51 9 82 1z m85 -6 c0 -12 -8 -12 -35 0 -18 8 -17 9 8 9 15 1 27 -3 27 -9z
m-193 -16 c-3 -3 -12 -4 -19 -1 -8 3 -5 6 6 6 11 1 17 -2 13 -5z m-119 -44
c-34 -19 -45 -19 -33 -1 3 6 11 9 16 6 5 -4 9 3 9 15 0 18 3 19 21 10 20 -11
19 -12 -13 -30z m-67 -3 c-10 -9 -11 -8 -5 6 3 10 9 15 12 12 3 -3 0 -11 -7
-18z m-34 -124 c-2 -21 -4 -4 -4 37 0 41 2 58 4 38 2 -21 2 -55 0 -75z m683
81 c0 -2 -9 0 -20 6 -11 6 -20 13 -20 16 0 2 9 0 20 -6 11 -6 20 -13 20 -16z
m-655 -34 c3 -5 1 -10 -4 -10 -6 0 -11 5 -11 10 0 6 2 10 4 10 3 0 8 -4 11
-10z"/>
<path d="M8317 8134 c-14 -14 -7 -21 17 -17 18 4 33 -3 51 -22 15 -14 30 -24
33 -20 3 3 -5 16 -19 30 -25 25 -70 41 -82 29z"/>
<path d="M7966 8089 c-14 -11 -26 -25 -26 -31 0 -7 10 -2 23 10 13 12 33 22
45 22 11 0 24 5 27 10 11 19 -42 10 -69 -11z"/>
<path d="M8321 8031 c-17 -30 -13 -86 7 -111 15 -19 22 -21 39 -12 28 15 36
52 20 99 -14 44 -49 57 -66 24z"/>
<path d="M7985 8006 c-26 -62 2 -129 44 -107 37 20 39 84 4 124 -23 25 -32 21
-48 -17z"/>
<path d="M7892 7890 c0 -19 2 -27 5 -17 2 9 2 25 0 35 -3 9 -5 1 -5 -18z"/>
<path d="M7903 7795 c0 -22 2 -30 4 -17 2 12 2 30 0 40 -3 9 -5 -1 -4 -23z"/>
<path d="M8751 7743 c-6 -21 -11 -44 -11 -51 0 -15 -41 -82 -67 -107 -11 -12
-14 -20 -6 -22 19 -7 3 -42 -19 -40 -18 1 -18 2 -2 14 10 7 15 15 12 19 -6 5
-63 -30 -78 -47 -3 -3 -26 -11 -52 -18 l-46 -13 30 -50 c23 -37 33 -46 40 -36
7 9 8 7 3 -8 -4 -16 5 -30 37 -59 l42 -38 19 54 c10 30 20 77 22 104 9 120 13
137 38 163 35 38 60 91 54 118 -2 13 0 24 4 24 5 0 9 7 9 15 0 29 -19 15 -29
-22z m-131 -253 c0 -5 -7 -10 -15 -10 -8 0 -15 5 -15 10 0 6 7 10 15 10 8 0
15 -4 15 -10z m37 -47 c-3 -10 -5 -2 -5 17 0 19 2 27 5 18 2 -10 2 -26 0 -35z
m-62 7 c3 -6 1 -10 -4 -10 -6 0 -11 5 -11 11 0 6 -7 9 -15 5 -9 -3 -15 0 -15
10 0 11 4 12 19 4 11 -5 23 -15 26 -20z m-65 5 c0 -8 -2 -15 -4 -15 -2 0 -6 7
-10 15 -3 8 -1 15 4 15 6 0 10 -7 10 -15z m107 -7 c-3 -8 -6 -5 -6 6 -1 11 2
17 5 13 3 -3 4 -12 1 -19z m-77 -12 c0 -3 -4 -8 -10 -11 -5 -3 -10 -1 -10 4 0
6 5 11 10 11 6 0 10 -2 10 -4z m91 -61 c-20 -52 -27 -61 -27 -35 0 11 4 20 8
20 4 0 8 8 8 18 0 14 17 42 26 42 1 0 -6 -20 -15 -45z m-41 -35 c0 -5 -2 -10
-4 -10 -3 0 -8 5 -11 10 -3 6 -1 10 4 10 6 0 11 -4 11 -10z"/>
<path d="M7911 7735 c0 -11 4 -40 10 -65 10 -45 17 -78 18 -92 1 -5 9 -8 19
-9 10 0 12 -3 5 -6 -19 -7 7 -40 51 -64 47 -25 60 -24 19 2 -42 27 -80 93
-103 182 -10 39 -19 63 -19 52z"/>
<path d="M11286 7655 c-9 -39 -23 -88 -31 -110 -7 -22 -30 -104 -51 -182 l-38
-143 -50 1 c-28 0 -150 6 -271 13 -121 7 -226 10 -232 8 -16 -5 -16 -14 0 -35
11 -16 42 -18 287 -23 l275 -5 22 71 c12 38 19 78 16 87 -4 10 -2 14 4 10 10
-6 21 31 29 88 0 6 4 18 7 28 34 90 63 212 57 237 -5 20 -9 11 -24 -45z"/>
<path d="M11745 7388 c105 -261 -170 -651 -510 -723 -127 -27 -258 -13 -373
40 -62 29 -99 59 -143 119 -35 47 -38 32 -5 -32 50 -99 179 -187 311 -211 213
-39 437 27 597 177 127 119 211 318 193 460 -8 67 -39 152 -66 184 l-19 23 15
-37z"/>
<path d="M8303 7353 c-11 -15 -25 -41 -31 -58 -54 -135 -56 -441 -4 -510 l14
-20 -7 20 c-4 11 -14 49 -22 85 -29 126 1 373 56 466 26 44 21 57 -6 17z"/>
<path d="M8946 7278 c-77 -119 -94 -167 -107 -291 -12 -130 -26 -331 -23 -335
1 -2 44 12 96 31 112 43 297 92 393 107 143 21 135 18 135 51 0 56 -41 233
-67 291 -25 57 -99 138 -125 138 -7 0 -35 16 -62 35 -43 31 -132 65 -168 65
-7 0 -40 -41 -72 -92z"/>
<path d="M7855 7311 c-70 -20 -94 -32 -155 -77 -420 -310 -425 -313 -508 -344
-54 -21 -88 -40 -98 -56 -10 -14 -26 -24 -40 -24 -15 0 -43 -19 -76 -52 -29
-29 -77 -64 -106 -77 -28 -14 -52 -29 -52 -34 0 -11 40 -8 318 28 116 15 223
25 235 21 43 -10 74 -54 108 -153 18 -53 39 -101 46 -108 6 -7 9 -15 6 -19 -3
-3 8 -43 25 -88 16 -46 54 -151 82 -235 l52 -152 56 77 c68 94 127 212 137
272 4 25 10 137 14 249 l6 203 -30 -38 c-58 -75 -170 -186 -213 -211 -26 -15
-52 -23 -67 -21 -24 5 -41 -14 -30 -33 4 -5 -1 -6 -9 -3 -11 4 -3 24 39 87 29
45 75 127 103 182 53 107 183 407 212 490 10 28 27 70 39 93 l21 42 -27 -1
c-16 0 -55 -8 -88 -18z m19 -646 c-4 -9 -16 -21 -28 -27 -19 -10 -18 -8 4 15
29 31 31 32 24 12z m-44 -55 c0 -5 -5 -10 -11 -10 -5 0 -7 5 -4 10 3 6 8 10
11 10 2 0 4 -4 4 -10z m-88 -82 c-9 -9 -8 -14 4 -23 13 -9 13 -11 -4 -11 -11
0 -19 5 -18 11 2 14 16 35 24 35 3 0 1 -5 -6 -12z m-185 -130 c-3 -8 -6 -5 -6
6 -1 11 2 17 5 13 3 -3 4 -12 1 -19z m223 -278 c6 -11 8 -20 6 -20 -3 0 -10 9
-16 20 -6 11 -8 20 -6 20 3 0 10 -9 16 -20z"/>
<path d="M8585 7032 c-36 -58 -146 -168 -207 -208 -91 -58 -86 -54 -63 -47 67
21 250 188 298 272 29 50 5 36 -28 -17z"/>
<path d="M5806 6933 c-3 -10 -23 -89 -45 -176 -29 -116 -49 -173 -74 -214
l-35 -57 23 -37 c13 -20 31 -53 39 -73 8 -20 20 -36 25 -36 6 0 10 -3 9 -7 -4
-16 14 -53 23 -48 5 3 6 0 3 -8 -3 -8 2 -20 11 -27 8 -7 15 -19 15 -26 0 -8 5
-14 12 -14 6 0 8 -3 5 -7 -4 -3 -3 -11 2 -17 5 -6 25 -44 46 -83 21 -43 41
-70 48 -66 5 3 7 1 3 -5 -8 -13 13 -62 27 -62 5 0 6 7 3 16 -3 9 -2 12 5 9 5
-4 7 -15 4 -25 -8 -25 15 -75 28 -58 6 9 7 7 3 -6 -4 -12 9 -46 38 -95 24 -43
54 -96 66 -119 12 -23 26 -42 31 -42 4 0 5 -7 2 -17 -4 -11 -3 -14 5 -9 8 5
12 0 12 -12 0 -11 8 -30 18 -43 10 -13 26 -43 36 -66 10 -23 23 -40 28 -37 5
3 8 -2 6 -12 -2 -12 2 -18 10 -16 8 1 11 -2 8 -7 -8 -13 28 -73 38 -64 4 4 4
0 1 -9 -3 -8 1 -23 10 -32 9 -9 14 -16 10 -16 -3 0 1 -13 10 -30 9 -16 23 -30
33 -30 11 0 13 -3 5 -8 -8 -5 -8 -11 1 -24 7 -10 15 -16 18 -13 2 3 4 -5 4
-18 -1 -13 4 -21 12 -19 8 1 11 -2 7 -7 -7 -12 19 -66 44 -95 9 -10 15 -20 13
-22 -5 -8 29 -64 38 -64 6 0 10 -10 10 -21 0 -17 4 -20 23 -15 12 4 38 9 57
11 19 3 51 9 70 14 91 26 91 26 210 29 49 2 61 5 50 13 -13 9 -12 10 3 5 9 -3
25 -9 35 -13 15 -6 16 -5 3 13 -14 18 -14 18 4 2 18 -17 14 -22 -112 -146
-109 -108 -137 -131 -178 -143 -91 -27 -127 -71 -230 -283 -98 -203 -129 -269
-171 -369 -59 -139 -181 -355 -232 -409 -25 -27 -29 -28 -133 -28 -92 0 -110
-3 -132 -20 l-26 -20 -58 29 c-132 67 -275 81 -369 37 -97 -45 -164 -140 -170
-240 l-3 -51 8 46 c22 115 86 179 181 179 30 -1 69 -7 85 -16 26 -12 26 -13 5
-8 -14 3 -53 8 -88 11 -51 4 -61 3 -57 -9 4 -10 -1 -14 -17 -14 -17 1 -22 -4
-21 -19 1 -11 0 -14 -3 -7 -8 18 -27 15 -20 -4 3 -8 2 -13 -3 -10 -15 9 -51
-82 -51 -129 0 -18 -5 -35 -10 -37 -7 -2 -7 -15 0 -37 5 -19 7 -38 4 -42 -3
-5 0 -9 6 -9 7 0 9 -8 5 -19 -7 -23 55 -147 90 -177 13 -12 22 -24 19 -27 -2
-2 3 -10 13 -18 14 -12 16 -12 8 0 -5 10 -4 12 3 7 7 -4 12 -13 12 -19 0 -21
107 -120 120 -112 7 4 10 2 9 -6 -4 -20 20 -61 32 -54 5 4 9 -1 9 -9 0 -9 5
-16 12 -16 6 0 9 -3 5 -6 -17 -17 234 -331 254 -318 5 3 8 1 7 -4 -7 -23 106
-96 196 -126 53 -18 132 -14 119 6 -3 7 -1 8 5 4 12 -7 52 13 52 27 0 5 13 22
29 37 29 29 42 74 37 120 -2 14 -4 31 -5 38 0 7 -6 10 -12 6 -8 -4 -9 1 -4 16
5 15 4 20 -4 16 -7 -5 -8 -1 -4 10 5 13 3 15 -7 9 -9 -5 -11 -4 -6 4 8 12 -27
64 -37 55 -3 -3 -4 3 -3 13 0 10 -5 17 -12 15 -8 -1 -11 2 -7 8 10 16 -23 62
-38 54 -7 -4 -9 -4 -5 1 9 9 -52 81 -65 77 -5 -1 -6 2 -3 6 7 12 -28 44 -39
35 -4 -5 -5 -2 -1 5 9 16 -27 55 -40 44 -5 -4 -6 -3 -2 2 4 5 -14 30 -41 55
-26 25 -52 57 -56 71 -8 24 -8 24 -17 5 -6 -16 -7 -14 -3 8 8 38 -21 98 -43
90 -13 -4 -14 -3 -3 5 11 8 11 14 1 33 l-13 23 -8 -22 c-5 -12 -11 -22 -13
-22 -3 0 -1 11 4 25 10 27 5 51 -18 78 -8 9 -13 20 -10 23 11 10 109 -166 122
-219 4 -17 55 -79 122 -150 140 -147 203 -229 251 -324 31 -62 35 -79 31 -123
-3 -30 -14 -63 -27 -80 -39 -53 -22 -45 45 20 117 116 203 257 204 337 0 25
11 43 51 83 58 58 101 143 125 245 47 207 111 336 335 682 65 100 146 236 179
301 34 66 69 127 78 135 9 8 96 68 192 132 223 150 431 306 639 479 90 76 165
136 166 134 2 -2 -6 -37 -16 -78 -11 -41 -31 -133 -45 -205 -27 -139 -36 -171
-83 -306 -16 -48 -60 -199 -96 -335 -157 -589 -219 -779 -260 -794 -13 -5 -40
-29 -60 -53 -35 -42 -40 -45 -101 -50 -75 -7 -175 -51 -217 -95 l-28 -29 53
18 c59 20 92 24 83 9 -3 -5 -16 -10 -28 -10 -42 0 -97 -21 -122 -46 -14 -14
-25 -28 -26 -32 -13 -100 2 -239 23 -210 7 10 8 8 4 -5 -9 -28 11 -70 31 -63
13 6 14 4 3 -9 -11 -13 -10 -19 4 -33 14 -14 16 -14 13 -2 -2 8 -2 11 1 7 2
-4 11 -2 20 5 13 11 13 9 -1 -13 -17 -25 -16 -26 24 -72 36 -40 43 -45 53 -31
10 13 12 13 12 -5 0 -11 -4 -17 -8 -15 -21 13 -4 -12 33 -47 22 -21 46 -36 51
-33 7 4 8 2 4 -4 -8 -13 81 -98 100 -96 7 1 10 -5 7 -13 -5 -12 -1 -14 18 -8
18 5 20 4 9 -4 -12 -9 -12 -13 6 -33 11 -13 30 -33 41 -46 17 -19 21 -20 26
-8 4 9 -1 20 -11 25 -9 5 -15 12 -12 14 3 3 13 -1 23 -8 15 -11 17 -17 7 -35
-9 -16 -9 -25 0 -36 7 -7 16 -11 21 -8 5 3 6 -2 3 -10 -4 -10 -1 -16 8 -16 7
0 18 -10 23 -22 6 -13 17 -24 25 -24 34 -3 80 -27 80 -42 0 -13 -2 -14 -9 -4
-9 14 -61 44 -61 36 0 -12 48 -47 95 -69 48 -22 72 -24 178 -17 19 1 27 7 27
20 0 10 7 27 15 38 19 25 19 79 -1 138 -9 26 -14 49 -12 52 3 2 12 -19 21 -47
21 -65 22 -132 2 -149 -8 -7 -15 -17 -15 -23 0 -19 93 85 150 168 30 44 76 99
102 123 29 27 60 69 80 110 32 66 33 70 31 187 -3 142 15 259 113 745 54 270
71 337 100 395 37 76 42 119 24 217 -9 45 -7 65 6 104 41 122 196 474 328 746
46 93 85 190 98 239 l20 83 -28 23 c-35 28 -168 98 -226 119 -128 46 -140 48
-483 48 -181 1 -337 5 -345 9 -11 5 -43 -10 -100 -48 -121 -79 -155 -88 -310
-83 -113 3 -132 6 -157 25 -15 11 -27 26 -25 32 1 6 -12 11 -29 11 -59 0 -103
44 -73 74 8 9 14 16 12 17 -2 0 -13 2 -25 5 -30 5 -63 34 -63 56 0 36 28 48
113 49 l82 1 -84 13 c-85 13 -103 24 -99 59 4 28 42 35 210 37 139 1 148 2
143 19 -4 12 0 20 12 24 10 3 26 19 36 35 17 28 16 32 -6 102 -21 64 -25 69
-31 46 -9 -36 -48 -62 -73 -48 -10 6 -64 29 -121 51 -57 22 -118 46 -135 54
-18 7 -56 23 -84 34 l-53 21 15 -30 c9 -17 21 -27 27 -23 6 4 8 3 5 -2 -3 -6
1 -37 9 -70 13 -48 13 -69 4 -103 -13 -50 -60 -105 -112 -132 -37 -19 -225
-83 -375 -129 l-72 -21 -3 -47 c-3 -40 -8 -49 -37 -69 -41 -28 -73 -29 -127
-4 -119 54 -188 180 -144 265 20 40 11 50 -10 11 -7 -14 -15 -23 -18 -20 -3 2
2 15 10 27 13 19 26 24 68 26 61 2 71 12 90 86 23 92 112 360 132 399 11 22
18 40 16 41 -2 1 -52 22 -113 45 -60 24 -135 54 -165 67 -30 12 -163 66 -295
118 -222 88 -245 95 -295 91 l-55 -4 45 9 c25 5 83 14 130 21 47 6 86 12 87
13 1 1 -3 35 -8 76 -17 128 -82 238 -183 312 -46 33 -53 34 -60 11z m-16 -447
c0 -8 -51 -13 -56 -5 -3 5 9 9 25 9 17 0 31 -2 31 -4z m-66 -76 c11 -22 11
-32 3 -37 -7 -3 -9 -3 -5 1 4 5 -2 24 -13 43 -11 19 -15 32 -10 29 5 -4 16
-20 25 -36z m281 30 c3 -6 -1 -7 -9 -4 -18 7 -21 14 -7 14 6 0 13 -4 16 -10z
m-197 -156 c-4 -3 -12 5 -18 18 -12 22 -12 22 6 6 10 -10 15 -20 12 -24z m597
-4 c3 -6 -1 -7 -9 -4 -18 7 -21 14 -7 14 6 0 13 -4 16 -10z m-18 -26 c-3 -3
-12 -4 -19 -1 -8 3 -5 6 6 6 11 1 17 -2 13 -5z m-504 -114 c-3 -12 -8 -19 -11
-16 -5 6 5 36 12 36 2 0 2 -9 -1 -20z m807 2 c0 -5 -7 -17 -16 -28 -8 -10 -14
-14 -11 -9 2 6 7 18 10 28 7 17 17 23 17 9z m-787 -17 c-3 -9 -8 -14 -10 -11
-3 3 -2 9 2 15 9 16 15 13 8 -4z m94 -147 c2 -18 0 -20 -7 -8 -8 12 -10 13
-10 1 0 -8 -3 -11 -6 -8 -4 4 -1 13 6 22 16 19 15 19 17 -7z m1340 -80 c-3 -8
-6 -5 -6 6 -1 11 2 17 5 13 3 -3 4 -12 1 -19z m118 -38 c3 -5 1 -10 -4 -10 -6
0 -11 5 -11 10 0 6 2 10 4 10 3 0 8 -4 11 -10z m275 -75 c0 -5 -5 -3 -10 5 -5
8 -10 20 -10 25 0 6 5 3 10 -5 5 -8 10 -19 10 -25z m-122 0 c-3 -3 -9 2 -12
12 -6 14 -5 15 5 6 7 -7 10 -15 7 -18z m-1538 -5 c0 -5 -2 -10 -4 -10 -3 0 -8
5 -11 10 -3 6 -1 10 4 10 6 0 11 -4 11 -10z m497 -12 c-3 -8 -6 -5 -6 6 -1 11
2 17 5 13 3 -3 4 -12 1 -19z m784 -15 c-12 -20 -14 -14 -5 12 4 9 9 14 11 11
3 -2 0 -13 -6 -23z m-1234 -53 c1 -14 0 -18 -3 -10 -4 8 -14 21 -23 28 -14 13
-14 13 4 10 13 -2 21 -12 22 -28z m30 8 c-3 -8 -6 -5 -6 6 -1 11 2 17 5 13 3
-3 4 -12 1 -19z m1290 -44 c-3 -3 -12 -4 -19 -1 -8 3 -5 6 6 6 11 1 17 -2 13
-5z m-174 -29 c-3 -9 -8 -14 -10 -11 -3 3 -2 9 2 15 9 16 15 13 8 -4z m-1106
-37 c-3 -8 -6 -5 -6 6 -1 11 2 17 5 13 3 -3 4 -12 1 -19z m1078 12 c-3 -5 -12
-10 -18 -10 -7 0 -6 4 3 10 19 12 23 12 15 0z m-185 -80 c-8 -5 -22 -9 -30 -9
-10 0 -8 3 5 9 27 12 43 12 25 0z m280 -14 c0 -3 -4 -8 -10 -11 -5 -3 -10 -1
-10 4 0 6 5 11 10 11 6 0 10 -2 10 -4z m-445 -56 c-3 -5 -12 -10 -18 -10 -7 0
-6 4 3 10 19 12 23 12 15 0z m-585 -55 c0 -5 -5 -3 -10 5 -5 8 -10 20 -10 25
0 6 5 3 10 -5 5 -8 10 -19 10 -25z m151 8 c13 -16 12 -17 -3 -4 -10 7 -18 15
-18 17 0 8 8 3 21 -13z m-27 -53 c-6 -5 -24 21 -24 34 0 6 6 1 14 -10 8 -10
12 -21 10 -24z m126 -38 c0 -1 -9 2 -20 8 -11 6 -20 15 -20 20 0 6 9 2 20 -7
11 -10 20 -19 20 -21z m870 -12 c0 -5 -5 -10 -11 -10 -5 0 -7 5 -4 10 3 6 8
10 11 10 2 0 4 -4 4 -10z m157 -76 c-3 -3 -12 -4 -19 -1 -8 3 -5 6 6 6 11 1
17 -2 13 -5z m312 -124 c-1 -12 -2 -12 -6 -1 -4 9 -7 10 -12 2 -4 -6 -8 3 -8
21 0 18 -3 44 -7 58 -4 14 2 5 13 -20 11 -25 20 -52 20 -60z m-1437 -9 c-4
-10 -7 -11 -10 -3 -2 7 -9 9 -14 6 -6 -4 -8 -3 -5 3 10 16 36 11 29 -6z m1461
-41 c5 -19 1 -20 -76 -18 l-82 2 73 3 c69 4 73 5 66 25 -4 12 -2 18 4 14 5 -3
12 -15 15 -26z m-250 -27 c-35 -2 -91 -2 -125 0 -35 2 -7 3 62 3 69 0 97 -1
63 -3z m-633 -13 c0 -5 -4 -10 -10 -10 -5 0 -10 5 -10 10 0 6 5 10 10 10 6 0
10 -4 10 -10z m315 -1 c-71 -3 -170 -6 -220 -6 l-90 1 110 6 c61 3 160 6 220
6 l110 1 -130 -8z m-345 -9 c0 -5 -2 -10 -4 -10 -3 0 -8 5 -11 10 -3 6 -1 10
4 10 6 0 11 -4 11 -10z m-1485 -1481 c22 -15 56 -45 75 -66 92 -100 94 -103
77 -103 -9 0 -17 5 -17 11 0 16 -51 75 -62 71 -5 -1 -7 2 -3 8 3 5 1 10 -4 10
-18 0 -26 -5 -23 -13 1 -5 -3 -5 -9 -2 -7 5 -8 10 0 18 7 7 3 17 -12 33 -12
13 -25 24 -29 24 -4 0 -20 12 -35 27 -30 28 -21 24 42 -18z m-88 25 c-3 -3
-12 -4 -19 -1 -8 3 -5 6 6 6 11 1 17 -2 13 -5z m-34 -21 c-7 -2 -19 -2 -25 0
-7 3 -2 5 12 5 14 0 19 -2 13 -5z m-209 -158 c3 -8 1 -15 -4 -15 -6 0 -10 7
-10 15 0 8 2 15 4 15 2 0 6 -7 10 -15z m85 -224 c-2 -6 -10 2 -17 17 -11 25
-11 25 4 10 9 -9 15 -21 13 -27z m-34 -2 c4 -11 4 -23 1 -26 -3 -4 -6 1 -6 10
0 9 -8 21 -17 26 -16 9 -17 10 -1 11 9 0 20 -9 23 -21z m2279 -83 c104 -43
223 -175 327 -361 18 -33 61 -94 96 -135 35 -41 63 -79 63 -83 0 -11 -20 10
-49 51 -12 18 -27 30 -32 26 -5 -3 -8 -2 -7 3 4 11 -38 64 -46 58 -3 -3 -4 -2
-1 1 4 6 -32 84 -44 94 -3 3 -16 23 -28 45 -12 22 -26 39 -32 38 -6 -2 -8 3
-5 10 2 7 -10 28 -28 47 -17 19 -30 35 -27 36 8 1 -106 114 -116 114 -6 0 -18
9 -28 20 -9 11 -23 20 -31 20 -21 0 -84 29 -63 30 10 0 33 -6 51 -14z m-2169
-36 c3 -5 2 -10 -4 -10 -5 0 -13 5 -16 10 -3 6 -2 10 4 10 5 0 13 -4 16 -10z
m0 -40 c10 -11 16 -20 13 -20 -3 0 -13 9 -23 20 -10 11 -16 20 -13 20 3 0 13
-9 23 -20z m535 -1 c0 -14 -17 -10 -23 5 -4 10 -1 13 9 9 7 -3 14 -9 14 -14z
m1690 1 c0 -5 -4 -10 -10 -10 -5 0 -10 5 -10 10 0 6 5 10 10 10 6 0 10 -4 10
-10z m-1691 -27 c2 -1 -5 -1 -16 0 -11 0 -20 7 -20 14 0 10 4 10 16 1 9 -7 18
-13 20 -15z m1759 -28 c-3 -3 -13 7 -23 22 l-17 28 23 -22 c12 -12 20 -25 17
-28z m37 -25 c3 -5 2 -10 -4 -10 -5 0 -13 5 -16 10 -3 6 -2 10 4 10 5 0 13 -4
16 -10z m-2159 -42 c3 -4 -1 -5 -10 -4 -8 1 -18 5 -22 8 -3 4 1 5 10 4 8 -1
18 -5 22 -8z m2208 -60 c8 -5 7 -8 -1 -8 -7 0 -17 9 -23 19 -14 27 -12 41 2
16 6 -11 16 -23 22 -27z m-1689 2 c-3 -5 -12 -10 -18 -10 -7 0 -6 4 3 10 19
12 23 12 15 0z m-500 -29 c-6 -5 -25 10 -25 20 0 5 6 4 14 -3 8 -7 12 -15 11
-17z m43 -32 c-6 -4 -7 -12 -4 -18 15 -24 -3 -9 -20 17 -15 23 -15 25 -1 13
15 -12 17 -11 17 5 0 16 2 16 10 4 6 -9 5 -17 -2 -21z m2210 -5 c8 -15 8 -21
-1 -21 -7 0 -13 11 -13 24 -2 27 -1 27 14 -3z m-418 -116 c0 -6 -6 -5 -15 2
-8 7 -15 14 -15 16 0 2 7 1 15 -2 8 -4 15 -11 15 -16z m500 -33 c13 -14 19
-25 13 -25 -6 0 -18 11 -27 25 -9 14 -15 25 -13 25 2 0 14 -11 27 -25z m-2131
-49 c8 -10 9 -16 1 -21 -6 -4 -9 -1 -8 7 2 7 -3 12 -9 11 -7 -2 -13 2 -13 7 0
14 16 12 29 -4z m81 -76 c0 -5 -2 -10 -4 -10 -3 0 -8 5 -11 10 -3 6 -1 10 4
10 6 0 11 -4 11 -10z m35 -8 c-3 -3 -11 0 -18 7 -9 10 -8 11 6 5 10 -3 15 -9
12 -12z m2209 -65 c25 -41 46 -80 46 -88 0 -8 -7 -1 -16 16 -8 16 -21 37 -28
45 -8 8 -21 30 -30 48 -9 18 -21 30 -26 27 -6 -3 -7 1 -4 9 3 9 8 16 9 16 2 0
24 -33 49 -73z m-519 53 c3 -5 1 -10 -4 -10 -6 0 -11 5 -11 10 0 6 2 10 4 10
3 0 8 -4 11 -10z m-1665 -25 c7 -9 10 -18 6 -22 -3 -3 -6 -1 -6 6 0 6 -10 16
-22 21 -16 6 -18 9 -7 9 9 1 22 -6 29 -14z m2144 -11 c3 -8 2 -12 -4 -9 -6 3
-10 10 -10 16 0 14 7 11 14 -7z m6 -74 c0 -5 -2 -10 -4 -10 -3 0 -8 5 -11 10
-3 6 -1 10 4 10 6 0 11 -4 11 -10z m32 -12 c-7 -7 -12 -8 -12 -2 0 14 12 26
19 19 2 -3 -1 -11 -7 -17z m55 -100 c-3 -8 -6 -5 -6 6 -1 11 2 17 5 13 3 -3 4
-12 1 -19z m-20 -30 c-3 -7 -5 -2 -5 12 0 14 2 19 5 13 2 -7 2 -19 0 -25z
m-196 -65 c13 -17 13 -17 -6 -3 -11 8 -22 16 -24 17 -2 2 0 3 6 3 6 0 17 -8
24 -17z m232 2 c-3 -9 -8 -14 -10 -11 -3 3 -2 9 2 15 9 16 15 13 8 -4z m-38
-15 c3 -5 1 -10 -4 -10 -6 0 -11 5 -11 10 0 6 2 10 4 10 3 0 8 -4 11 -10z
m-136 -56 c10 -9 -35 -3 -49 6 -11 8 -7 9 15 4 17 -4 32 -8 34 -10z m146 7 c3
-5 2 -12 -3 -15 -5 -3 -9 1 -9 9 0 17 3 19 12 6z"/>
<path d="M9360 6743 c-78 -9 -271 -57 -380 -95 -145 -51 -169 -63 -180 -93 -5
-14 -16 -25 -25 -25 -8 0 -15 -3 -15 -6 0 -28 42 -136 82 -212 48 -89 49 -93
34 -117 -9 -14 -23 -25 -31 -25 -31 0 -125 -39 -167 -69 -46 -32 -109 -55
-262 -96 -54 -14 -135 -40 -181 -56 -113 -41 -214 -128 -113 -97 31 9 43 8 82
-11 133 -65 181 -287 85 -395 -36 -41 -28 -46 70 -46 83 0 148 19 224 64 32
19 99 49 149 66 198 68 437 181 541 257 40 30 47 32 48 16 0 -10 0 -109 -1
-220 l-1 -202 61 21 c46 15 59 23 49 30 -11 7 -9 8 4 4 10 -3 38 3 61 14 140
63 142 64 298 61 221 -3 307 18 349 85 24 40 24 59 -2 85 -16 16 -29 20 -53
15 -22 -4 -27 -3 -16 4 31 20 -207 14 -268 -6 -66 -23 -187 -104 -155 -104 5
0 15 6 23 13 8 6 6 2 -5 -11 -11 -14 -21 -18 -25 -12 -5 7 -17 5 -38 -7 -29
-16 -32 -17 -66 0 -20 9 -44 14 -53 10 -30 -10 58 56 129 99 116 69 197 92
318 92 136 1 209 -20 263 -75 34 -34 39 -43 33 -72 l-6 -32 20 24 c50 59 35
120 -52 219 -58 65 -65 78 -86 159 -25 97 -76 213 -118 269 -36 46 -96 87
-162 108 -68 23 -161 85 -212 143 l-40 46 -63 -7 c-78 -8 -190 -38 -284 -77
-40 -17 -80 -29 -90 -27 -29 5 -21 40 15 61 47 28 183 72 282 93 47 10 87 19
88 20 2 1 -10 23 -27 48 -17 24 -31 52 -31 60 0 16 -19 18 -100 9z m544 -534
c4 -3 4 -12 1 -20 -4 -11 -26 -13 -102 -10 -107 3 -157 -7 -216 -46 -37 -23
-67 -25 -67 -4 0 13 64 52 120 73 34 13 71 17 152 15 58 -1 109 -5 112 -8z
m-544 -502 c0 -5 -4 -5 -10 -2 -5 3 -10 14 -10 23 0 15 2 15 10 2 5 -8 10 -19
10 -23z m40 -114 c0 -2 -4 -3 -10 -3 -5 0 -10 10 -10 23 0 13 -3 17 -8 10 -4
-6 -8 7 -8 30 l-2 41 19 -50 c11 -27 19 -50 19 -51z m360 47 c0 -5 -2 -10 -4
-10 -3 0 -8 5 -11 10 -3 6 -1 10 4 10 6 0 11 -4 11 -10z m-5 -30 c-3 -5 -12
-10 -18 -10 -7 0 -6 4 3 10 19 12 23 12 15 0z m355 -35 c0 -2 -9 -3 -19 -2
-11 0 -18 5 -15 9 4 6 34 0 34 -7z m-603 -19 c0 -8 -6 -12 -14 -9 -7 3 -10 9
-7 14 8 14 21 11 21 -5z m-72 -6 c13 -6 15 -9 5 -9 -8 0 -22 4 -30 9 -18 12
-2 12 25 0z m90 -40 c3 -6 -1 -7 -9 -4 -18 7 -21 14 -7 14 6 0 13 -4 16 -10z
m-48 -46 c-3 -3 -12 -4 -19 -1 -8 3 -5 6 6 6 11 1 17 -2 13 -5z"/>
<path d="M6850 5860 l-35 -29 49 -48 49 -47 28 32 c75 84 -6 165 -91 92z"/>
<path d="M11688 5843 c-35 -9 -62 -105 -36 -131 13 -13 66 -16 93 -6 17 7 55
74 55 98 0 36 -53 55 -112 39z m-17 -56 c-10 -9 -11 -8 -5 6 3 10 9 15 12 12
3 -3 0 -11 -7 -18z m59 -67 c-8 -5 -22 -9 -30 -9 -10 0 -8 3 5 9 27 12 43 12
25 0z"/>
<path d="M8146 5746 c51 -54 77 -126 72 -199 -2 -29 -8 -61 -13 -72 l-8 -20
16 20 c12 14 16 41 17 90 0 57 -5 81 -29 131 -27 57 -61 94 -87 94 -6 0 8 -20
32 -44z"/>
<path d="M11182 5578 c-118 -50 -267 -88 -349 -88 -49 0 -62 -3 -57 -12 6 -9
3 -9 -9 0 -9 8 -21 12 -28 10 -6 -2 7 -16 28 -31 26 -18 47 -25 59 -21 14 4
15 3 6 -4 -18 -13 43 -48 117 -67 106 -28 217 -15 329 37 51 24 62 33 57 48
-3 10 -18 52 -33 93 l-27 75 -93 -40z m88 -28 c-8 -5 -19 -10 -25 -10 -5 0 -3
5 5 10 8 5 20 10 25 10 6 0 3 -5 -5 -10z m26 -53 c-2 -7 -5 -4 -5 6 -1 9 -9
17 -18 17 -15 0 -16 2 -3 10 17 10 35 -12 26 -33z m-309 -33 c-3 -3 -12 -4
-19 -1 -8 3 -5 6 6 6 11 1 17 -2 13 -5z m323 -9 c0 -8 -4 -15 -10 -15 -5 0 -7
7 -4 15 4 8 8 15 10 15 2 0 4 -7 4 -15z m-425 -35 c-3 -5 -13 -6 -21 -3 -12 4
-13 8 -3 14 15 9 32 2 24 -11z m355 -14 c0 -2 -7 -7 -16 -10 -8 -3 -12 -2 -9
4 6 10 25 14 25 6z"/>
</g>
</svg>
