<?xml version="1.0" standalone="no"?>
<!DOCTYPE svg PUBLIC "-//W3C//DTD SVG 20010904//EN"
 "http://www.w3.org/TR/2001/REC-SVG-20010904/DTD/svg10.dtd">
<svg version="1.0" xmlns="http://www.w3.org/2000/svg"
 width="600.000000pt" height="135.000000pt" viewBox="0 0 600.000000 135.000000"
 preserveAspectRatio="xMidYMid meet">

<g transform="translate(0.000000,135.000000) scale(0.100000,-0.100000)"
fill="#000000" stroke="none">
<path d="M742 663 c3 -480 3 -488 23 -488 20 0 20 7 20 485 l0 485 -23 3 -22
3 2 -488z"/>
<path d="M3917 1144 c-4 -4 -7 -220 -7 -479 0 -414 2 -474 15 -485 10 -9 19
-10 26 -3 6 6 8 189 7 488 -3 424 -5 480 -18 483 -9 1 -19 0 -23 -4z"/>
<path d="M2633 1133 c-10 -4 -13 -108 -13 -475 l0 -469 23 3 22 3 3 466 c2
481 2 485 -35 472z"/>
<path d="M5796 1114 c-10 -27 -7 -898 4 -914 7 -12 13 -12 27 -4 17 10 18 42
21 450 1 241 0 449 -3 462 -6 26 -40 30 -49 6z"/>
<path d="M4747 1103 c-9 -14 -9 -52 -8 -471 l1 -413 23 3 22 3 3 429 c2 420 0
456 -29 456 -4 0 -10 -3 -12 -7z"/>
<path d="M1565 1088 c-3 -7 -4 -204 -3 -438 3 -417 3 -425 23 -425 20 0 20 8
23 438 2 434 2 437 -18 437 -11 0 -23 -6 -25 -12z"/>
<path d="M1451 1067 c-8 -11 -11 -122 -9 -413 l3 -399 22 -3 c16 -2 22 3 25
20 2 13 1 198 -2 412 -5 388 -8 419 -39 383z"/>
<path d="M155 1058 c-3 -7 -4 -191 -3 -408 3 -387 3 -395 23 -395 20 0 20 7
20 405 0 378 -1 405 -18 408 -9 2 -19 -2 -22 -10z"/>
<path d="M3327 1063 c-9 -8 -9 -776 -1 -797 8 -21 40 -21 48 0 3 9 6 186 6
394 0 208 -3 385 -6 394 -6 16 -35 22 -47 9z"/>
<path d="M4622 663 c3 -400 3 -408 23 -408 20 0 20 7 20 405 l0 405 -23 3 -22
3 2 -408z"/>
<path d="M2155 1038 c-3 -7 -4 -182 -3 -388 3 -367 3 -375 23 -375 20 0 20 7
20 385 0 359 -1 385 -18 388 -9 2 -19 -2 -22 -10z"/>
<path d="M5326 1034 c-3 -9 -6 -179 -6 -379 0 -321 2 -364 16 -376 14 -11 18
-10 30 6 19 26 21 734 2 753 -17 17 -35 15 -42 -4z"/>
<path d="M1682 663 c3 -340 3 -348 23 -348 20 0 20 7 20 345 l0 345 -23 3 -22
3 2 -348z"/>
<path d="M4856 994 c-3 -9 -6 -161 -6 -339 0 -278 2 -324 15 -335 10 -8 19
-10 25 -4 10 10 15 668 5 684 -9 15 -32 12 -39 -6z"/>
<path d="M860 981 c-12 -24 -14 -620 -1 -639 5 -8 17 -12 27 -10 18 3 19 19
22 322 2 311 -1 346 -29 346 -5 0 -13 -9 -19 -19z"/>
<path d="M4037 994 c-4 -4 -7 -155 -7 -335 0 -296 2 -327 17 -333 9 -4 20 -3
25 2 4 4 7 156 6 338 -3 287 -5 329 -18 332 -9 1 -19 0 -23 -4z"/>
<path d="M2505 968 c-3 -7 -4 -148 -3 -313 l3 -300 23 -3 22 -3 -2 313 c-3
289 -4 313 -21 316 -9 2 -19 -3 -22 -10z"/>
<path d="M5680 665 c0 -280 2 -316 16 -322 9 -3 20 0 25 8 5 8 8 151 6 319
l-2 305 -22 3 -23 3 0 -316z"/>
<path d="M275 918 c-3 -7 -4 -128 -3 -268 3 -247 4 -255 23 -255 19 0 20 7 20
265 0 244 -1 265 -18 268 -9 2 -19 -3 -22 -10z"/>
<path d="M3445 918 c-3 -7 -4 -126 -3 -263 l3 -250 23 -3 22 -3 -2 263 c-3
241 -4 263 -21 266 -9 2 -19 -3 -22 -10z"/>
<path d="M2391 896 c-8 -9 -11 -82 -9 -242 3 -229 3 -229 26 -232 13 -2 22 2
22 10 0 7 1 113 1 234 1 122 -2 227 -5 233 -10 15 -21 14 -35 -3z"/>
<path d="M5565 888 c-3 -7 -4 -115 -3 -238 3 -217 4 -225 23 -225 19 0 20 7
20 235 0 216 -1 235 -18 238 -9 2 -19 -3 -22 -10z"/>
<path d="M504 877 c-2 -7 -3 -109 -2 -227 3 -207 4 -215 23 -215 19 0 20 8 23
228 2 223 2 227 -18 227 -11 0 -23 -6 -26 -13z"/>
<path d="M627 884 c-4 -4 -7 -105 -7 -225 0 -172 3 -218 13 -222 35 -13 37 6
35 229 -3 188 -5 219 -18 222 -9 1 -19 0 -23 -4z"/>
<path d="M2037 884 c-4 -4 -7 -103 -7 -219 0 -179 2 -215 15 -225 31 -26 35 3
33 226 -3 188 -5 219 -18 222 -9 1 -19 0 -23 -4z"/>
<path d="M3101 876 c-8 -9 -11 -76 -9 -222 3 -201 4 -209 23 -209 19 0 20 8
23 211 2 170 0 213 -11 223 -11 9 -17 8 -26 -3z"/>
<path d="M3687 884 c-4 -4 -7 -105 -7 -225 0 -172 3 -218 13 -222 35 -13 37 6
35 229 -3 188 -5 219 -18 222 -9 1 -19 0 -23 -4z"/>
<path d="M3795 868 c-3 -13 -4 -113 -3 -222 3 -178 5 -200 21 -210 14 -8 20
-8 27 4 10 16 14 408 4 434 -9 24 -43 20 -49 -6z"/>
<path d="M5208 868 c-2 -13 -1 -115 2 -228 4 -183 7 -205 22 -208 26 -5 29 23
26 248 -3 202 -3 205 -25 208 -16 2 -22 -3 -25 -20z"/>
<path d="M37 864 c-10 -11 -8 -387 2 -403 15 -23 39 -5 43 31 2 18 1 109 -2
203 -4 143 -7 170 -20 173 -9 1 -19 0 -23 -4z"/>
<path d="M3217 863 c-4 -3 -7 -96 -7 -205 l0 -199 23 3 c22 3 22 4 25 197 2
149 -1 196 -10 203 -16 10 -23 10 -31 1z"/>
<path d="M1332 848 c-8 -8 -12 -64 -12 -184 0 -145 3 -175 16 -189 12 -12 19
-13 30 -4 11 9 14 49 14 188 0 168 -5 201 -30 201 -3 0 -11 -5 -18 -12z"/>
<path d="M2747 853 c-4 -3 -7 -91 -7 -195 l0 -189 23 3 c22 3 22 5 25 182 2
123 -1 183 -9 192 -13 15 -22 17 -32 7z"/>
<path d="M4507 854 c-4 -4 -7 -92 -7 -195 0 -147 3 -188 13 -192 34 -13 37 7
35 199 -3 161 -5 189 -18 192 -9 1 -19 0 -23 -4z"/>
<path d="M5917 854 c-4 -4 -7 -89 -7 -189 0 -185 6 -216 38 -196 9 6 12 55 10
197 -3 161 -5 189 -18 192 -9 1 -19 0 -23 -4z"/>
<path d="M4980 836 c-7 -9 -10 -71 -8 -182 3 -161 4 -169 23 -169 19 0 20 8
23 176 2 147 0 178 -12 182 -8 3 -19 0 -26 -7z"/>
<path d="M1795 818 c-3 -13 -4 -90 -3 -172 3 -130 5 -150 21 -160 14 -8 20 -8
27 4 11 16 14 308 4 334 -9 24 -43 20 -49 -6z"/>
<path d="M974 817 c-2 -7 -3 -82 -2 -167 3 -147 4 -155 23 -155 19 0 20 8 23
168 2 163 2 167 -18 167 -11 0 -23 -6 -26 -13z"/>
<path d="M1212 663 c3 -160 4 -168 23 -168 19 0 20 7 20 165 0 164 0 165 -23
168 l-22 3 2 -168z"/>
<path d="M4155 818 c-3 -8 -4 -83 -3 -168 3 -147 4 -155 23 -155 19 0 20 7 20
165 0 149 -2 165 -18 168 -9 2 -19 -3 -22 -10z"/>
<path d="M4387 823 c-4 -3 -7 -75 -7 -158 0 -121 3 -155 15 -165 30 -25 35 0
35 166 0 152 -1 164 -18 164 -10 0 -22 -3 -25 -7z"/>
<path d="M2272 663 c3 -130 4 -138 23 -138 19 0 20 7 20 135 0 133 0 135 -23
138 l-23 3 3 -138z"/>
<path d="M5444 787 c-2 -7 -3 -69 -2 -138 3 -116 4 -124 23 -124 19 0 20 8 23
138 2 133 2 137 -18 137 -11 0 -23 -6 -26 -13z"/>
<path d="M392 748 c-14 -14 -16 -146 -3 -166 5 -8 17 -12 27 -10 16 3 19 14
22 82 3 92 -13 127 -46 94z"/>
<path d="M2854 747 c-3 -8 -4 -49 -2 -92 2 -62 7 -80 21 -89 14 -8 20 -8 27 4
11 17 14 149 4 174 -7 19 -43 21 -50 3z"/>
<path d="M3567 754 c-4 -4 -7 -47 -7 -95 0 -72 3 -88 17 -93 28 -11 34 8 31
100 -2 71 -6 89 -18 92 -9 1 -19 0 -23 -4z"/>
<path d="M1914 716 c-3 -7 -4 -38 -2 -67 3 -47 6 -54 26 -57 21 -3 22 0 22 67
0 65 -2 71 -20 71 -11 0 -23 -6 -26 -14z"/>
<path d="M2974 716 c-3 -7 -4 -38 -2 -67 3 -47 6 -54 26 -57 21 -3 22 0 22 67
0 65 -2 71 -20 71 -11 0 -23 -6 -26 -14z"/>
<path d="M5092 663 c3 -60 5 -68 23 -68 18 0 20 7 20 65 0 60 -2 65 -23 68
-22 3 -23 1 -20 -65z"/>
<path d="M1101 711 c-8 -5 -11 -25 -9 -52 2 -37 7 -45 26 -47 20 -3 22 0 22
46 0 50 -13 68 -39 53z"/>
<path d="M4275 704 c-12 -12 -15 -26 -11 -47 3 -16 6 -34 6 -39 0 -5 10 -8 23
-6 18 2 23 10 25 44 4 51 -17 74 -43 48z"/>
</g>
</svg>
